<svg width="50" height="36" viewBox="0 0 50 36" fill="none" xmlns="http://www.w3.org/2000/svg">
<g clip-path="url(#clip0_1082_12)">
<path d="M41.5601 3.01494C38.4115 1.58618 35.0877 0.57257 31.6734 0C31.2062 0.827852 30.7835 1.6796 30.407 2.55168C26.7701 2.00848 23.0717 2.00848 19.4349 2.55168C19.0582 1.67969 18.6354 0.827951 18.1684 0C14.752 0.577405 11.4259 1.59342 8.27426 3.02242C2.01739 12.198 0.321251 21.1457 1.16932 29.9664C4.8335 32.6498 8.93476 34.6906 13.2948 36C14.2766 34.6912 15.1453 33.3027 15.8918 31.8493C14.474 31.3244 13.1055 30.6769 11.8022 29.9141C12.1452 29.6675 12.4807 29.4135 12.8048 29.1669C16.597 30.9345 20.736 31.851 24.9266 31.851C29.1172 31.851 33.2561 30.9345 37.0483 29.1669C37.3762 29.4321 37.7117 29.6862 38.0509 29.9141C36.7452 30.6781 35.3742 31.3269 33.9538 31.8531C34.6994 33.3058 35.5682 34.6931 36.5508 36C40.9146 34.6958 45.019 32.656 48.6838 29.9701C49.6789 19.741 46.9839 10.8755 41.5601 3.01494ZM16.966 24.5417C14.6027 24.5417 12.6503 22.4159 12.6503 19.8008C12.6503 17.1856 14.5349 15.0411 16.9585 15.0411C19.3821 15.0411 21.3195 17.1856 21.278 19.8008C21.2365 22.4159 19.3746 24.5417 16.966 24.5417ZM32.8871 24.5417C30.5201 24.5417 28.5752 22.4159 28.5752 19.8008C28.5752 17.1856 30.4598 15.0411 32.8871 15.0411C35.3145 15.0411 37.2368 17.1856 37.1953 19.8008C37.1539 22.4159 35.2956 24.5417 32.8871 24.5417Z" fill="white"/>
</g>
<defs>
<clipPath id="clip0_1082_12">
<rect width="50" height="36" fill="white"/>
</clipPath>
</defs>
</svg>
