<svg width="2500" height="2500" viewBox="0 0 2500 2500" fill="none" xmlns="http://www.w3.org/2000/svg">
<g clip-path="url(#clip0_1170_5)">
<path d="M1250 0C1940.36 0 2500 559.644 2500 1250C2500 1940.36 1940.36 2500 1250 2500C559.644 2500 0 1940.36 0 1250C0 559.644 559.644 0 1250 0ZM1379.54 383.685C1215.22 383.685 1032.44 452.797 1032.44 690.993C1033.24 773.99 1032.44 853.476 1032.44 942.933H842.339V1245.44H1038.32V2116.31H1398.46V1239.69H1636.15L1657.66 942.084H1392.25C1392.25 942.084 1392.84 809.695 1392.25 771.248C1392.25 677.118 1490.2 682.509 1496.09 682.509C1542.7 682.509 1633.32 682.645 1656.58 682.509V383.685H1379.54Z" fill="white"/>
</g>
<defs>
<clipPath id="clip0_1170_5">
<rect width="2500" height="2500" fill="white"/>
</clipPath>
</defs>
</svg>
