<svg width="2500" height="2500" viewBox="0 0 2500 2500" fill="none" xmlns="http://www.w3.org/2000/svg">
<path d="M1250 0C1940.35 0 2499.99 559.638 2500 1250C2500 1940.36 1940.36 2500 1250 2500C559.638 2499.99 0 1940.36 0 1250C0.000213762 559.638 559.638 0.00021354 1250 0ZM642.046 967.646V1854.31H916.496V967.646H642.046ZM1622.39 940.6C1434.46 940.6 1355.27 1086.95 1355.2 1087.06V967.646H1091.97V1854.31H1355.2V1388.89C1355.2 1264.19 1412.59 1189.98 1522.45 1189.98C1623.39 1189.98 1671.88 1261.23 1671.88 1388.89V1854.31H1945L1945 1292.89C1945 1055.4 1810.41 940.6 1622.39 940.6ZM777.963 524.313C688.341 524.314 615.668 597.564 615.668 687.924C615.668 778.274 688.331 851.529 777.963 851.529C867.59 851.529 940.253 778.279 940.248 687.924C940.248 597.564 867.585 524.313 777.963 524.313Z" fill="url(#paint0_linear_1172_7)"/>
<defs>
<linearGradient id="paint0_linear_1172_7" x1="366.115" y1="366.115" x2="2133.88" y2="2133.88" gradientUnits="userSpaceOnUse">
<stop stop-color="#2489BE"/>
<stop offset="1" stop-color="#0575B3"/>
</linearGradient>
</defs>
</svg>
