<svg width="50" height="50" viewBox="0 0 50 50" fill="none" xmlns="http://www.w3.org/2000/svg">
<g clip-path="url(#clip0_1082_14)">
<path d="M3.76172 6.18674H45.1807V45.9036H3.76172V6.18674Z" fill="black"/>
<path d="M0.0498047 3.58233C0.0498047 1.60442 1.70111 0 3.73719 0H46.2624C48.2985 0 49.9498 1.60442 49.9498 3.58233V46.4197C49.9498 48.3976 48.2985 50 46.2624 50H3.73719C1.70111 50 0.0498047 48.3976 0.0498047 46.4197V3.58233Z" fill="white"/>
<path d="M15.2144 41.8434V19.3333H7.74747V41.8434H15.2144ZM11.483 16.261C14.0862 16.261 15.7074 14.5321 15.7074 12.3715C15.6593 10.1626 14.0862 8.48193 11.5331 8.48193C8.97794 8.48193 7.30859 10.1626 7.30859 12.3715C7.30859 14.5321 8.92784 16.261 11.4349 16.261H11.483ZM19.3467 41.8434H26.8137V29.2731C26.8137 28.6004 26.8618 27.9277 27.0602 27.4478C27.5993 26.1024 28.8277 24.7108 30.8919 24.7108C33.5933 24.7108 34.6734 26.7751 34.6734 29.8012V41.8414H42.1404V28.9357C42.1404 22.0221 38.457 18.8052 33.5452 18.8052C29.5171 18.8052 27.7496 21.0602 26.7656 22.5964H26.8157V19.3333H19.3467C19.4449 21.4458 19.3467 41.8434 19.3467 41.8434Z" fill="black"/>
</g>
<defs>
<clipPath id="clip0_1082_14">
<rect width="50" height="50" fill="white"/>
</clipPath>
</defs>
</svg>
