<svg width="50" height="50" viewBox="0 0 50 50" fill="none" xmlns="http://www.w3.org/2000/svg">
<g clip-path="url(#clip0_1082_3)">
<path d="M25 50C38.8071 50 50 38.8071 50 25C50 11.1929 38.8071 0 25 0C11.1929 0 0 11.1929 0 25C0 38.8071 11.1929 50 25 50Z" fill="white"/>
<path d="M10.4046 24.7832C10.4046 24.7832 22.9046 19.6532 27.2398 17.8468C28.9017 17.1243 34.5375 14.8121 34.5375 14.8121C34.5375 14.8121 37.1387 13.8006 36.9219 16.2572C36.8496 17.2688 36.2716 20.8092 35.6936 24.6387C34.8265 30.0578 33.8872 35.9826 33.8872 35.9826C33.8872 35.9826 33.7427 37.6445 32.5144 37.9335C31.2861 38.2225 29.2629 36.922 28.9017 36.6329C28.6126 36.4162 23.4826 33.1647 21.604 31.5751C21.0982 31.1416 20.5202 30.2746 21.6762 29.263C24.2774 26.8786 27.3843 23.9162 29.2629 22.0376C30.13 21.1705 30.997 19.1474 27.3843 21.604C22.2543 25.1445 17.1965 28.4682 17.1965 28.4682C17.1965 28.4682 16.0404 29.1907 13.8728 28.5404C11.7051 27.8902 9.17622 27.0231 9.17622 27.0231C9.17622 27.0231 7.44222 25.9393 10.4046 24.7832Z" fill="black"/>
</g>
<defs>
<clipPath id="clip0_1082_3">
<rect width="50" height="50" fill="white"/>
</clipPath>
</defs>
</svg>
