<svg width="2500" height="2500" viewBox="0 0 2500 2500" fill="none" xmlns="http://www.w3.org/2000/svg">
<path d="M1250 0C1940.35 0 2500 559.645 2500 1250C2500 1940.35 1940.35 2500 1250 2500C559.645 2500 0 1940.35 0 1250C0 559.645 559.645 0 1250 0ZM1846.1 812.86C1856.94 690.03 1726.88 740.605 1726.88 740.605C1726.57 740.732 1445.04 856.235 1362 892.34C1145.32 982.625 520.714 1238.96 520.235 1239.16C372.115 1296.97 458.815 1351.16 458.815 1351.16C459.097 1351.25 585.382 1394.55 693.646 1427.02C801.992 1459.52 859.794 1423.43 859.83 1423.41C859.83 1423.41 1112.72 1257.23 1369.22 1080.2C1549.85 957.37 1506.51 1058.52 1463.15 1101.88C1369.22 1195.81 1213.88 1343.93 1083.82 1463.15C1026.02 1513.73 1054.92 1557.08 1080.21 1578.75C1174.14 1658.23 1430.63 1820.81 1445.09 1831.65C1463.15 1846.1 1564.31 1911.12 1625.72 1896.67C1687.14 1882.22 1694.37 1799.13 1694.37 1799.13C1694.4 1798.92 1741.34 1502.79 1784.68 1231.93C1813.58 1040.46 1842.48 863.441 1846.1 812.86Z" fill="white"/>
</svg>
