<svg width="1350" height="634" viewBox="0 0 1350 634" fill="none" xmlns="http://www.w3.org/2000/svg">
<path d="M1008.22 568.414H341.78L95.1288 327.931H0L313.92 634H1036.08L1350 327.931H1254.87L1008.22 568.414Z" fill="white"/>
<path d="M341.78 65.5862H1008.22L1254.87 306.069H1350L1036.08 0H313.92L0 306.069H95.1288L341.78 65.5862Z" fill="white"/>
<path d="M378.933 153.034H971.064L1128.02 306.069H1223.15L998.925 87.4482H351.073L126.845 306.069H221.974L378.933 153.034Z" fill="white"/>
<path d="M971.064 480.966H378.933L221.974 327.931H126.845L351.073 546.552H998.925L1223.15 327.931H1128.02L971.064 480.966Z" fill="white"/>
<path d="M416.088 240.483H933.91L1001.18 306.069H1096.32L961.781 174.896H388.217L253.68 306.069H348.82L416.088 240.483Z" fill="white"/>
<path d="M933.91 393.517H416.088L348.82 327.931H253.68L388.217 459.103H961.781L1096.32 327.931H1001.18L933.91 393.517Z" fill="white"/>
<path d="M425.372 262.345L369.315 317L425.372 371.655H924.628L980.685 317L924.628 262.345H425.372Z" fill="white"/>
</svg>
