<svg width="248" height="124" viewBox="0 0 248 124" fill="none" xmlns="http://www.w3.org/2000/svg">
<path d="M171.51 34.6533L195.659 59.2676H180.307L167.889 46.6104L167.742 46.4609H75.1768L75.0293 46.6104L62.6113 59.2676H47.2588L71.4082 34.6533H171.51Z" fill="#41FF1B" stroke="black"/>
<path d="M179.894 17.5776L220.798 59.269H203.351L174.179 29.5347L174.031 29.3853H68.9014L68.7539 29.5347L39.5811 59.269H24.1875L63.0459 17.5776H179.894Z" fill="#41FF1B" stroke="black"/>
<path d="M188.269 0.5L245.927 59.2676H228.479L182.554 12.457L182.406 12.3076H60.5156L60.3672 12.4658L16.5371 59.2676H1.13184L54.6709 0.5H188.269Z" fill="#41FF1B" stroke="black"/>
<path d="M39.5811 64.5366L68.7539 94.27L68.9014 94.4204H174.031L174.179 94.27L203.351 64.5366H220.797L179.894 106.228H63.0469L24.1885 64.5366H39.5811Z" fill="#41FF1B" stroke="black"/>
<path d="M16.5371 64.5366L60.3672 111.338L60.5156 111.497H182.406L182.554 111.347L228.479 64.5366H245.926L188.269 123.304H54.6709L1.13184 64.5366H16.5371Z" fill="#41FF1B" stroke="black"/>
<path d="M62.6104 64.5366L75.0293 77.1938L75.1768 77.3442H167.742L167.889 77.1938L180.308 64.5366H195.659L171.511 89.1509H71.4072L47.2588 64.5366H62.6104Z" fill="#41FF1B" stroke="black"/>
<path d="M165.229 51.73L175.209 61.9019L165.229 72.0757H77.6924L67.71 61.9019L77.6924 51.73H165.229Z" fill="#41FF1B" stroke="black"/>
</svg>
