<svg width="248" height="124" viewBox="0 0 248 124" fill="none" xmlns="http://www.w3.org/2000/svg">
<path d="M171.301 35.1533L194.469 58.7676H180.517L168.246 46.2607L167.952 45.9609H74.9668L74.6729 46.2607L62.4014 58.7676H48.4492L71.6182 35.1533H171.301Z" fill="#41FF1B" stroke="black" stroke-width="2"/>
<path d="M179.685 18.0776L219.606 58.769H203.562L174.535 29.1851L174.241 28.8853H68.6914L68.3975 29.1851L39.3711 58.769H25.3369L63.2627 18.0776H179.685Z" fill="#41FF1B" stroke="black" stroke-width="2"/>
<path d="M188.06 1L244.735 58.7676H228.689L182.91 12.1074L182.616 11.8076H60.2988L60.002 12.124L16.3193 58.7676H2.26367L54.8916 1H188.06Z" fill="#41FF1B" stroke="black" stroke-width="2"/>
<path d="M39.3721 65.0366L68.3975 94.6206L68.6914 94.9204H174.241L174.535 94.6206L203.561 65.0366H219.606L179.684 105.728H63.2637L25.3369 65.0366H39.3721Z" fill="#41FF1B" stroke="black" stroke-width="2"/>
<path d="M16.3193 65.0366L60.002 111.68L60.2988 111.997H182.616L182.91 111.697L228.689 65.0366H244.735L188.06 122.804H54.8916L2.26367 65.0366H16.3193Z" fill="#41FF1B" stroke="black" stroke-width="2"/>
<path d="M62.4014 65.0366L74.6729 77.5444L74.9668 77.8442H167.952L168.246 77.5444L180.517 65.0366H194.469L171.301 88.6509H71.6182L48.4492 65.0366H62.4014Z" fill="#41FF1B" stroke="black" stroke-width="2"/>
<path d="M165.019 52.23L174.509 61.9028L165.019 71.5757H77.9014L68.4111 61.9028L77.9014 52.23H165.019Z" fill="#41FF1B" stroke="black" stroke-width="2"/>
</svg>
