<svg width="72" height="36" viewBox="0 0 72 36" fill="none" xmlns="http://www.w3.org/2000/svg">
<path d="M57.3559 17.0847L50.0339 9.7627H20.7458L13.4238 17.0847H18.3052L21.9662 13.4237H48.8136L52.4746 17.0847H57.3559Z" fill="#39FF14"/>
<path d="M52.4755 4.88184H18.3061L6.71289 17.0852H11.5942L20.1366 8.54284H50.645L59.1873 17.0852H64.6789L52.4755 4.88184Z" fill="#39FF14"/>
<path d="M17.6949 3.66101H53.0846L66.5083 17.0847H71.9998L54.9151 0H15.8644L0 17.0847H4.88134L17.6949 3.66101Z" fill="#39FF14"/>
<path d="M6.71289 18.3052L18.3061 30.5085H52.4755L64.6789 18.3052H59.1873L50.645 26.8475H20.1366L11.5942 18.3052H6.71289Z" fill="#39FF14"/>
<path d="M53.0846 31.7289H17.6949L4.88134 18.3052H0L15.8644 35.3899H54.9151L71.9998 18.3052H66.5083L53.0846 31.7289Z" fill="#39FF14"/>
<path d="M20.7458 25.6272H50.0339L57.3559 18.3052H52.4746L48.8136 21.9662H21.9662L18.3052 18.3052H13.4238L20.7458 25.6272Z" fill="#39FF14"/>
<path d="M22.5762 14.644L19.5254 17.6949L22.5762 20.7457H48.2033L51.2541 17.6949L48.2033 14.644H22.5762Z" fill="#39FF14"/>
</svg>