<svg width="1727" height="812" viewBox="0 0 1727 812" fill="none" xmlns="http://www.w3.org/2000/svg">
<path d="M530.844 317.603L442.24 405.826L530.844 494.049H1196.15L1284.76 405.826L1196.15 317.603H530.844Z" fill="#50F12F"/>
<path d="M435.418 88.223H1291.58L1601.7 397.003H1727L1328.28 0H398.718L0 397.003H125.304L435.418 88.223Z" fill="#50F12F"/>
<path d="M1291.58 723.428H435.418L125.304 414.648H0L398.718 811.651H1328.28L1727 414.648H1601.7L1291.58 723.428Z" fill="#50F12F"/>
<path d="M479.456 194.091H1247.53L1451.32 397.004H1576.62L1284.23 105.868H442.756L150.362 397.004H275.666L479.456 194.091Z" fill="#50F12F"/>
<path d="M1247.53 617.561H479.456L275.666 414.648H150.362L442.756 705.784H1284.23L1576.62 414.648H1451.32L1247.53 617.561Z" fill="#50F12F"/>
<path d="M1203.49 511.693H523.509L426.044 414.648H300.74L486.809 599.916H1240.19L1426.26 414.648H1300.96L1203.49 511.693Z" fill="#50F12F"/>
<path d="M523.509 299.958H1203.49L1300.96 397.003H1426.26L1240.19 211.735H486.809L300.74 397.003H426.044L523.509 299.958Z" fill="#50F12F"/>
</svg>
