<svg width="1439" height="216" viewBox="0 0 1439 216" fill="none" xmlns="http://www.w3.org/2000/svg">
<g filter="url(#filter0_d_515_24)">
<mask id="path-1-outside-1_515_24" maskUnits="userSpaceOnUse" x="4" y="0" width="1431" height="208" fill="black">
<rect fill="white" x="4" width="1431" height="208"/>
<path d="M32.2109 205H6.1109L83.5409 1.99999H113.411L190.551 205H163.581L142.121 150.19H53.6709L32.2109 205ZM97.7509 29.55L61.2109 127.28H134.581L97.7509 29.55ZM294.255 131.05V57.1H318.035V205H297.445L294.255 185.28C285.555 196.3 271.345 206.74 246.985 206.74C214.505 206.74 188.695 188.47 188.695 139.46V57.1H212.475V138.01C212.475 168.75 226.395 184.99 251.045 184.99C278.015 184.99 294.255 164.4 294.255 131.05ZM320.292 205L376.552 129.02L324.062 57.1H352.482L391.632 111.91L431.362 57.1H458.332L405.552 129.02L462.102 205H433.682L390.472 145.55L347.262 205H320.292ZM476.649 32.16C467.949 32.16 461.279 25.78 461.279 16.79C461.279 7.8 467.949 1.41999 476.649 1.41999C485.349 1.41999 492.019 7.8 492.019 16.79C492.019 25.78 485.349 32.16 476.649 32.16ZM464.469 205V57.1H488.249V205H464.469ZM578.827 55.36C612.177 55.36 638.567 73.63 638.567 122.64V205H614.787V124.09C614.787 93.35 600.577 77.11 574.767 77.11C546.927 77.11 530.107 97.7 530.107 131.05V205H506.327V57.1H526.917L530.107 77.11C538.807 65.8 553.887 55.36 578.827 55.36ZM719.264 205V1.99999H751.164L823.084 170.49L894.134 1.99999H925.454V205H900.804V44.92L833.524 205H811.194L743.914 44.92V205H719.264ZM1014.97 206.74C970.601 206.74 941.601 176.29 941.601 131.05C941.601 86.1 970.021 55.36 1011.78 55.36C1053.54 55.36 1080.8 81.75 1081.96 125.54C1081.96 128.73 1081.67 132.21 1081.38 135.69H966.541V137.72C967.411 165.85 985.101 185.57 1013.23 185.57C1034.11 185.57 1050.35 174.55 1055.28 155.41H1079.35C1073.55 184.99 1049.19 206.74 1014.97 206.74ZM967.991 115.97H1056.44C1054.12 90.45 1036.72 76.24 1012.07 76.24C990.321 76.24 970.311 91.9 967.991 115.97ZM1211.18 79.72V1.99999H1234.96V205H1214.37L1211.18 181.22C1201.32 194.85 1185.37 206.74 1160.43 206.74C1119.54 206.74 1089.38 179.19 1089.38 131.05C1089.38 85.81 1119.54 55.36 1160.43 55.36C1185.37 55.36 1202.19 65.51 1211.18 79.72ZM1162.75 185.57C1191.75 185.57 1211.47 163.24 1211.47 131.63C1211.47 99.15 1191.75 76.53 1162.75 76.53C1133.46 76.53 1113.74 98.86 1113.74 131.05C1113.74 163.24 1133.46 185.57 1162.75 185.57ZM1265.03 32.16C1256.33 32.16 1249.66 25.78 1249.66 16.79C1249.66 7.8 1256.33 1.41999 1265.03 1.41999C1273.73 1.41999 1280.4 7.8 1280.4 16.79C1280.4 25.78 1273.73 32.16 1265.03 32.16ZM1252.85 205V57.1H1276.63V205H1252.85ZM1425.5 183.25H1433.04V205H1419.99C1400.27 205 1393.6 196.59 1393.31 182.09C1384.03 195.43 1369.24 206.74 1343.72 206.74C1311.24 206.74 1289.2 190.5 1289.2 163.53C1289.2 133.95 1309.79 117.42 1348.65 117.42H1392.15V107.27C1392.15 88.13 1378.52 76.53 1355.32 76.53C1334.44 76.53 1320.52 86.39 1317.62 101.47H1293.84C1297.32 72.47 1320.81 55.36 1356.48 55.36C1394.18 55.36 1415.93 74.21 1415.93 108.72V173.39C1415.93 181.22 1418.83 183.25 1425.5 183.25ZM1392.15 144.68V137.43H1346.33C1325.16 137.43 1313.27 145.26 1313.27 162.08C1313.27 176.58 1325.74 186.44 1345.46 186.44C1375.04 186.44 1392.15 169.33 1392.15 144.68Z"/>
</mask>
<path d="M32.2109 205H6.1109L83.5409 1.99999H113.411L190.551 205H163.581L142.121 150.19H53.6709L32.2109 205ZM97.7509 29.55L61.2109 127.28H134.581L97.7509 29.55ZM294.255 131.05V57.1H318.035V205H297.445L294.255 185.28C285.555 196.3 271.345 206.74 246.985 206.74C214.505 206.74 188.695 188.47 188.695 139.46V57.1H212.475V138.01C212.475 168.75 226.395 184.99 251.045 184.99C278.015 184.99 294.255 164.4 294.255 131.05ZM320.292 205L376.552 129.02L324.062 57.1H352.482L391.632 111.91L431.362 57.1H458.332L405.552 129.02L462.102 205H433.682L390.472 145.55L347.262 205H320.292ZM476.649 32.16C467.949 32.16 461.279 25.78 461.279 16.79C461.279 7.8 467.949 1.41999 476.649 1.41999C485.349 1.41999 492.019 7.8 492.019 16.79C492.019 25.78 485.349 32.16 476.649 32.16ZM464.469 205V57.1H488.249V205H464.469ZM578.827 55.36C612.177 55.36 638.567 73.63 638.567 122.64V205H614.787V124.09C614.787 93.35 600.577 77.11 574.767 77.11C546.927 77.11 530.107 97.7 530.107 131.05V205H506.327V57.1H526.917L530.107 77.11C538.807 65.8 553.887 55.36 578.827 55.36ZM719.264 205V1.99999H751.164L823.084 170.49L894.134 1.99999H925.454V205H900.804V44.92L833.524 205H811.194L743.914 44.92V205H719.264ZM1014.97 206.74C970.601 206.74 941.601 176.29 941.601 131.05C941.601 86.1 970.021 55.36 1011.78 55.36C1053.54 55.36 1080.8 81.75 1081.96 125.54C1081.96 128.73 1081.67 132.21 1081.38 135.69H966.541V137.72C967.411 165.85 985.101 185.57 1013.23 185.57C1034.11 185.57 1050.35 174.55 1055.28 155.41H1079.35C1073.55 184.99 1049.19 206.74 1014.97 206.74ZM967.991 115.97H1056.44C1054.12 90.45 1036.72 76.24 1012.07 76.24C990.321 76.24 970.311 91.9 967.991 115.97ZM1211.18 79.72V1.99999H1234.96V205H1214.37L1211.18 181.22C1201.32 194.85 1185.37 206.74 1160.43 206.74C1119.54 206.74 1089.38 179.19 1089.38 131.05C1089.38 85.81 1119.54 55.36 1160.43 55.36C1185.37 55.36 1202.19 65.51 1211.18 79.72ZM1162.75 185.57C1191.75 185.57 1211.47 163.24 1211.47 131.63C1211.47 99.15 1191.75 76.53 1162.75 76.53C1133.46 76.53 1113.74 98.86 1113.74 131.05C1113.74 163.24 1133.46 185.57 1162.75 185.57ZM1265.03 32.16C1256.33 32.16 1249.66 25.78 1249.66 16.79C1249.66 7.8 1256.33 1.41999 1265.03 1.41999C1273.73 1.41999 1280.4 7.8 1280.4 16.79C1280.4 25.78 1273.73 32.16 1265.03 32.16ZM1252.85 205V57.1H1276.63V205H1252.85ZM1425.5 183.25H1433.04V205H1419.99C1400.27 205 1393.6 196.59 1393.31 182.09C1384.03 195.43 1369.24 206.74 1343.72 206.74C1311.24 206.74 1289.2 190.5 1289.2 163.53C1289.2 133.95 1309.79 117.42 1348.65 117.42H1392.15V107.27C1392.15 88.13 1378.52 76.53 1355.32 76.53C1334.44 76.53 1320.52 86.39 1317.62 101.47H1293.84C1297.32 72.47 1320.81 55.36 1356.48 55.36C1394.18 55.36 1415.93 74.21 1415.93 108.72V173.39C1415.93 181.22 1418.83 183.25 1425.5 183.25ZM1392.15 144.68V137.43H1346.33C1325.16 137.43 1313.27 145.26 1313.27 162.08C1313.27 176.58 1325.74 186.44 1345.46 186.44C1375.04 186.44 1392.15 169.33 1392.15 144.68Z" fill="white"/>
<path d="M32.2109 205V206H32.8933L33.1421 205.365L32.2109 205ZM6.1109 205L5.17656 204.644L4.6592 206H6.1109V205ZM83.5409 1.99999V0.999986H82.8521L82.6066 1.6436L83.5409 1.99999ZM113.411 1.99999L114.346 1.64477L114.101 0.999986H113.411V1.99999ZM190.551 205V206H192.001L191.486 204.645L190.551 205ZM163.581 205L162.65 205.365L162.899 206H163.581V205ZM142.121 150.19L143.052 149.825L142.803 149.19H142.121V150.19ZM53.6709 150.19V149.19H52.9885L52.7397 149.825L53.6709 150.19ZM97.7509 29.55L98.6867 29.1973L97.7472 26.7045L96.8142 29.1998L97.7509 29.55ZM61.2109 127.28L60.2742 126.93L59.7694 128.28H61.2109V127.28ZM134.581 127.28V128.28H136.026L135.517 126.927L134.581 127.28ZM32.2109 205V204H6.1109V205V206H32.2109V205ZM6.1109 205L7.04524 205.356L84.4752 2.35637L83.5409 1.99999L82.6066 1.6436L5.17656 204.644L6.1109 205ZM83.5409 1.99999V2.99999H113.411V1.99999V0.999986H83.5409V1.99999ZM113.411 1.99999L112.476 2.3552L189.616 205.355L190.551 205L191.486 204.645L114.346 1.64477L113.411 1.99999ZM190.551 205V204H163.581V205V206H190.551V205ZM163.581 205L164.512 204.635L143.052 149.825L142.121 150.19L141.19 150.555L162.65 205.365L163.581 205ZM142.121 150.19V149.19H53.6709V150.19V151.19H142.121V150.19ZM53.6709 150.19L52.7397 149.825L31.2797 204.635L32.2109 205L33.1421 205.365L54.6021 150.555L53.6709 150.19ZM97.7509 29.55L96.8142 29.1998L60.2742 126.93L61.2109 127.28L62.1476 127.63L98.6876 29.9002L97.7509 29.55ZM61.2109 127.28V128.28H134.581V127.28V126.28H61.2109V127.28ZM134.581 127.28L135.517 126.927L98.6867 29.1973L97.7509 29.55L96.8151 29.9026L133.645 127.633L134.581 127.28ZM294.255 57.1V56.1H293.255V57.1H294.255ZM318.035 57.1H319.035V56.1H318.035V57.1ZM318.035 205V206H319.035V205H318.035ZM297.445 205L296.458 205.16L296.594 206H297.445V205ZM294.255 185.28L295.243 185.12L294.879 182.876L293.47 184.66L294.255 185.28ZM188.695 57.1V56.1H187.695V57.1H188.695ZM212.475 57.1H213.475V56.1H212.475V57.1ZM294.255 131.05H295.255V57.1H294.255H293.255V131.05H294.255ZM294.255 57.1V58.1H318.035V57.1V56.1H294.255V57.1ZM318.035 57.1H317.035V205H318.035H319.035V57.1H318.035ZM318.035 205V204H297.445V205V206H318.035V205ZM297.445 205L298.433 204.84L295.243 185.12L294.255 185.28L293.268 185.44L296.458 205.16L297.445 205ZM294.255 185.28L293.47 184.66C284.934 195.473 271 205.74 246.985 205.74V206.74V207.74C271.691 207.74 286.176 197.127 295.04 185.9L294.255 185.28ZM246.985 206.74V205.74C230.927 205.74 216.645 201.226 206.373 190.778C196.101 180.329 189.695 163.796 189.695 139.46H188.695H187.695C187.695 164.134 194.194 181.241 204.947 192.18C215.701 203.119 230.564 207.74 246.985 207.74V206.74ZM188.695 139.46H189.695V57.1H188.695H187.695V139.46H188.695ZM188.695 57.1V58.1H212.475V57.1V56.1H188.695V57.1ZM212.475 57.1H211.475V138.01H212.475H213.475V57.1H212.475ZM212.475 138.01H211.475C211.475 153.513 214.983 165.52 221.747 173.666C228.536 181.843 238.487 185.99 251.045 185.99V184.99V183.99C238.954 183.99 229.62 180.017 223.286 172.389C216.927 164.73 213.475 153.247 213.475 138.01H212.475ZM251.045 184.99V185.99C264.81 185.99 275.91 180.723 283.546 171.15C291.16 161.604 295.255 147.874 295.255 131.05H294.255H293.255C293.255 147.576 289.231 160.816 281.982 169.903C274.756 178.962 264.251 183.99 251.045 183.99V184.99ZM320.292 205L319.488 204.405L318.307 206H320.292V205ZM376.552 129.02L377.356 129.615L377.793 129.024L377.36 128.43L376.552 129.02ZM324.062 57.1V56.1H322.094L323.254 57.6895L324.062 57.1ZM352.482 57.1L353.296 56.5187L352.997 56.1H352.482V57.1ZM391.632 111.91L390.818 112.491L391.626 113.622L392.442 112.497L391.632 111.91ZM431.362 57.1V56.1H430.852L430.552 56.5131L431.362 57.1ZM458.332 57.1L459.138 57.6916L460.306 56.1H458.332V57.1ZM405.552 129.02L404.746 128.428L404.308 129.024L404.75 129.617L405.552 129.02ZM462.102 205V206H464.093L462.904 204.403L462.102 205ZM433.682 205L432.873 205.588L433.173 206H433.682V205ZM390.472 145.55L391.281 144.962L390.472 143.849L389.663 144.962L390.472 145.55ZM347.262 205V206H347.771L348.071 205.588L347.262 205ZM320.292 205L321.096 205.595L377.356 129.615L376.552 129.02L375.748 128.425L319.488 204.405L320.292 205ZM376.552 129.02L377.36 128.43L324.87 56.5105L324.062 57.1L323.254 57.6895L375.744 129.61L376.552 129.02ZM324.062 57.1V58.1H352.482V57.1V56.1H324.062V57.1ZM352.482 57.1L351.668 57.6812L390.818 112.491L391.632 111.91L392.446 111.329L353.296 56.5187L352.482 57.1ZM391.632 111.91L392.442 112.497L432.172 57.6869L431.362 57.1L430.552 56.5131L390.822 111.323L391.632 111.91ZM431.362 57.1V58.1H458.332V57.1V56.1H431.362V57.1ZM458.332 57.1L457.526 56.5083L404.746 128.428L405.552 129.02L406.358 129.612L459.138 57.6916L458.332 57.1ZM405.552 129.02L404.75 129.617L461.3 205.597L462.102 205L462.904 204.403L406.354 128.423L405.552 129.02ZM462.102 205V204H433.682V205V206H462.102V205ZM433.682 205L434.491 204.412L391.281 144.962L390.472 145.55L389.663 146.138L432.873 205.588L433.682 205ZM390.472 145.55L389.663 144.962L346.453 204.412L347.262 205L348.071 205.588L391.281 146.138L390.472 145.55ZM347.262 205V204H320.292V205V206H347.262V205ZM464.469 205H463.469V206H464.469V205ZM464.469 57.1V56.1H463.469V57.1H464.469ZM488.249 57.1H489.249V56.1H488.249V57.1ZM488.249 205V206H489.249V205H488.249ZM476.649 32.16V31.16C468.489 31.16 462.279 25.2153 462.279 16.79H461.279H460.279C460.279 26.3447 467.41 33.16 476.649 33.16V32.16ZM461.279 16.79H462.279C462.279 8.36473 468.489 2.41999 476.649 2.41999V1.41999V0.419994C467.41 0.419994 460.279 7.23527 460.279 16.79H461.279ZM476.649 1.41999V2.41999C484.81 2.41999 491.019 8.36473 491.019 16.79H492.019H493.019C493.019 7.23527 485.889 0.419994 476.649 0.419994V1.41999ZM492.019 16.79H491.019C491.019 25.2153 484.81 31.16 476.649 31.16V32.16V33.16C485.889 33.16 493.019 26.3447 493.019 16.79H492.019ZM464.469 205H465.469V57.1H464.469H463.469V205H464.469ZM464.469 57.1V58.1H488.249V57.1V56.1H464.469V57.1ZM488.249 57.1H487.249V205H488.249H489.249V57.1H488.249ZM488.249 205V204H464.469V205V206H488.249V205ZM638.567 205V206H639.567V205H638.567ZM614.787 205H613.787V206H614.787V205ZM530.107 205V206H531.107V205H530.107ZM506.327 205H505.327V206H506.327V205ZM506.327 57.1V56.1H505.327V57.1H506.327ZM526.917 57.1L527.904 56.9426L527.77 56.1H526.917V57.1ZM530.107 77.11L529.119 77.2674L529.485 79.559L530.9 77.7197L530.107 77.11ZM578.827 55.36V56.36C595.327 56.36 609.975 60.8778 620.498 71.3307C631.019 81.7806 637.567 98.3095 637.567 122.64H638.567H639.567C639.567 97.9605 632.92 80.8494 621.908 69.9118C610.899 58.9772 595.677 54.36 578.827 54.36V55.36ZM638.567 122.64H637.567V205H638.567H639.567V122.64H638.567ZM638.567 205V204H614.787V205V206H638.567V205ZM614.787 205H615.787V124.09H614.787H613.787V205H614.787ZM614.787 124.09H615.787C615.787 108.583 612.204 96.5699 605.215 88.4214C598.203 80.2475 587.891 76.11 574.767 76.11V77.11V78.11C587.453 78.11 597.151 82.0924 603.697 89.7236C610.264 97.3801 613.787 108.857 613.787 124.09H614.787ZM574.767 77.11V76.11C560.58 76.11 549.119 81.3679 541.226 90.9374C533.351 100.483 529.107 114.218 529.107 131.05H530.107H531.107C531.107 114.532 535.273 101.297 542.768 92.2101C550.244 83.1471 561.114 78.11 574.767 78.11V77.11ZM530.107 131.05H529.107V205H530.107H531.107V131.05H530.107ZM530.107 205V204H506.327V205V206H530.107V205ZM506.327 205H507.327V57.1H506.327H505.327V205H506.327ZM506.327 57.1V58.1H526.917V57.1V56.1H506.327V57.1ZM526.917 57.1L525.929 57.2574L529.119 77.2674L530.107 77.11L531.094 76.9526L527.904 56.9426L526.917 57.1ZM530.107 77.11L530.9 77.7197C539.419 66.6442 554.212 56.36 578.827 56.36V55.36V54.36C553.562 54.36 538.195 64.9558 529.314 76.5003L530.107 77.11ZM719.264 205H718.264V206H719.264V205ZM719.264 1.99999V0.999986H718.264V1.99999H719.264ZM751.164 1.99999L752.084 1.6074L751.824 0.999986H751.164V1.99999ZM823.084 170.49L822.164 170.883L823.09 173.05L824.005 170.879L823.084 170.49ZM894.134 1.99999V0.999986H893.47L893.213 1.61143L894.134 1.99999ZM925.454 1.99999H926.454V0.999986H925.454V1.99999ZM925.454 205V206H926.454V205H925.454ZM900.804 205H899.804V206H900.804V205ZM900.804 44.92H901.804L899.882 44.5325L900.804 44.92ZM833.524 205V206H834.188L834.446 205.387L833.524 205ZM811.194 205L810.272 205.387L810.53 206H811.194V205ZM743.914 44.92L744.836 44.5325L742.914 44.92H743.914ZM743.914 205V206H744.914V205H743.914ZM719.264 205H720.264V1.99999H719.264H718.264V205H719.264ZM719.264 1.99999V2.99999H751.164V1.99999V0.999986H719.264V1.99999ZM751.164 1.99999L750.244 2.39257L822.164 170.883L823.084 170.49L824.004 170.097L752.084 1.6074L751.164 1.99999ZM823.084 170.49L824.005 170.879L895.055 2.38854L894.134 1.99999L893.213 1.61143L822.163 170.101L823.084 170.49ZM894.134 1.99999V2.99999H925.454V1.99999V0.999986H894.134V1.99999ZM925.454 1.99999H924.454V205H925.454H926.454V1.99999H925.454ZM925.454 205V204H900.804V205V206H925.454V205ZM900.804 205H901.804V44.92H900.804H899.804V205H900.804ZM900.804 44.92L899.882 44.5325L832.602 204.613L833.524 205L834.446 205.387L901.726 45.3074L900.804 44.92ZM833.524 205V204H811.194V205V206H833.524V205ZM811.194 205L812.116 204.613L744.836 44.5325L743.914 44.92L742.992 45.3074L810.272 205.387L811.194 205ZM743.914 44.92H742.914V205H743.914H744.914V44.92H743.914ZM743.914 205V204H719.264V205V206H743.914V205ZM1081.96 125.54H1082.96V125.527L1082.96 125.514L1081.96 125.54ZM1081.38 135.69V136.69H1082.3L1082.38 135.773L1081.38 135.69ZM966.541 135.69V134.69H965.541V135.69H966.541ZM966.541 137.72H965.541V137.735L965.542 137.751L966.541 137.72ZM1055.28 155.41V154.41H1054.51L1054.31 155.161L1055.28 155.41ZM1079.35 155.41L1080.33 155.602L1080.57 154.41H1079.35V155.41ZM967.991 115.97L966.996 115.874L966.89 116.97H967.991V115.97ZM1056.44 115.97V116.97H1057.54L1057.44 115.879L1056.44 115.97ZM1014.97 206.74V205.74C993.023 205.74 974.952 198.214 962.367 185.166C949.779 172.114 942.601 153.454 942.601 131.05H941.601H940.601C940.601 153.886 947.924 173.071 960.928 186.554C973.935 200.041 992.549 207.74 1014.97 207.74V206.74ZM941.601 131.05H942.601C942.601 108.786 949.637 90.1192 961.765 77.0283C973.886 63.9439 991.158 56.36 1011.78 56.36V55.36V54.36C990.644 54.36 972.826 62.1461 960.297 75.6691C947.775 89.1858 940.601 108.364 940.601 131.05H941.601ZM1011.78 55.36V56.36C1032.45 56.36 1049.43 62.8852 1061.39 74.739C1073.35 86.5943 1080.39 103.875 1080.96 125.566L1081.96 125.54L1082.96 125.514C1082.38 103.415 1075.2 85.6057 1062.8 73.3185C1050.4 61.0298 1032.88 54.36 1011.78 54.36V55.36ZM1081.96 125.54H1080.96C1080.96 128.681 1080.68 132.117 1080.38 135.607L1081.38 135.69L1082.38 135.773C1082.67 132.303 1082.96 128.779 1082.96 125.54H1081.96ZM1081.38 135.69V134.69H966.541V135.69V136.69H1081.38V135.69ZM966.541 135.69H965.541V137.72H966.541H967.541V135.69H966.541ZM966.541 137.72L965.542 137.751C965.983 152.016 970.693 164.229 978.94 172.884C987.194 181.547 998.92 186.57 1013.23 186.57V185.57V184.57C999.412 184.57 988.228 179.733 980.388 171.504C972.539 163.266 967.969 151.554 967.541 137.689L966.541 137.72ZM1013.23 185.57V186.57C1034.49 186.57 1051.19 175.312 1056.25 155.659L1055.28 155.41L1054.31 155.161C1049.51 173.788 1033.73 184.57 1013.23 184.57V185.57ZM1055.28 155.41V156.41H1079.35V155.41V154.41H1055.28V155.41ZM1079.35 155.41L1078.37 155.218C1072.66 184.329 1048.71 205.74 1014.97 205.74V206.74V207.74C1049.67 207.74 1074.44 185.651 1080.33 155.602L1079.35 155.41ZM967.991 115.97V116.97H1056.44V115.97V114.97H967.991V115.97ZM1056.44 115.97L1057.44 115.879C1056.26 102.904 1051.23 92.7185 1043.29 85.7818C1035.35 78.85 1024.59 75.24 1012.07 75.24V76.24V77.24C1024.2 77.24 1034.47 80.735 1041.97 87.2882C1049.47 93.8365 1054.3 103.516 1055.45 116.061L1056.44 115.97ZM1012.07 76.24V75.24C989.851 75.24 969.369 91.2477 966.996 115.874L967.991 115.97L968.986 116.066C971.253 92.5523 990.791 77.24 1012.07 77.24V76.24ZM1211.18 79.72L1210.33 80.2546L1212.18 83.1711V79.72H1211.18ZM1211.18 1.99999V0.999986H1210.18V1.99999H1211.18ZM1234.96 1.99999H1235.96V0.999986H1234.96V1.99999ZM1234.96 205V206H1235.96V205H1234.96ZM1214.37 205L1213.38 205.133L1213.49 206H1214.37V205ZM1211.18 181.22L1212.17 181.087L1211.83 178.604L1210.37 180.634L1211.18 181.22ZM1211.18 79.72H1212.18V1.99999H1211.18H1210.18V79.72H1211.18ZM1211.18 1.99999V2.99999H1234.96V1.99999V0.999986H1211.18V1.99999ZM1234.96 1.99999H1233.96V205H1234.96H1235.96V1.99999H1234.96ZM1234.96 205V204H1214.37V205V206H1234.96V205ZM1214.37 205L1215.36 204.867L1212.17 181.087L1211.18 181.22L1210.19 181.353L1213.38 205.133L1214.37 205ZM1211.18 181.22L1210.37 180.634C1200.66 194.053 1184.99 205.74 1160.43 205.74V206.74V207.74C1185.74 207.74 1201.97 195.647 1211.99 181.806L1211.18 181.22ZM1160.43 206.74V205.74C1140.21 205.74 1122.72 198.934 1110.28 186.247C1097.85 173.562 1090.38 154.907 1090.38 131.05H1089.38H1088.38C1088.38 155.333 1095.99 174.523 1108.85 187.648C1121.72 200.771 1139.75 207.74 1160.43 207.74V206.74ZM1089.38 131.05H1090.38C1090.38 108.656 1097.84 89.9903 1110.29 76.9301C1122.74 63.8719 1140.24 56.36 1160.43 56.36V55.36V54.36C1139.72 54.36 1121.69 62.0731 1108.84 75.5499C1096 89.0247 1088.38 108.204 1088.38 131.05H1089.38ZM1160.43 55.36V56.36C1185.07 56.36 1201.55 66.3733 1210.33 80.2546L1211.18 79.72L1212.02 79.1854C1202.82 64.6467 1185.66 54.36 1160.43 54.36V55.36ZM1162.75 185.57V186.57C1177.52 186.57 1189.97 180.875 1198.73 171.122C1207.47 161.377 1212.47 147.641 1212.47 131.63H1211.47H1210.47C1210.47 147.229 1205.6 160.463 1197.24 169.786C1188.88 179.1 1176.97 184.57 1162.75 184.57V185.57ZM1211.47 131.63H1212.47C1212.47 115.19 1207.47 101.167 1198.73 91.2391C1189.98 81.3009 1177.52 75.53 1162.75 75.53V76.53V77.53C1176.97 77.53 1188.87 83.0691 1197.23 92.5609C1205.6 102.063 1210.47 115.59 1210.47 131.63H1211.47ZM1162.75 76.53V75.53C1147.83 75.53 1135.3 81.2228 1126.51 91.0521C1117.73 100.872 1112.74 114.753 1112.74 131.05H1113.74H1114.74C1114.74 115.157 1119.6 101.778 1128 92.3854C1136.39 83.0022 1148.37 77.53 1162.75 77.53V76.53ZM1113.74 131.05H1112.74C1112.74 147.347 1117.73 161.228 1126.51 171.048C1135.3 180.877 1147.83 186.57 1162.75 186.57V185.57V184.57C1148.37 184.57 1136.39 179.098 1128 169.715C1119.6 160.322 1114.74 146.943 1114.74 131.05H1113.74ZM1252.85 205H1251.85V206H1252.85V205ZM1252.85 57.1V56.1H1251.85V57.1H1252.85ZM1276.63 57.1H1277.63V56.1H1276.63V57.1ZM1276.63 205V206H1277.63V205H1276.63ZM1265.03 32.16V31.16C1256.87 31.16 1250.66 25.2153 1250.66 16.79H1249.66H1248.66C1248.66 26.3447 1255.79 33.16 1265.03 33.16V32.16ZM1249.66 16.79H1250.66C1250.66 8.36473 1256.87 2.41999 1265.03 2.41999V1.41999V0.419994C1255.79 0.419994 1248.66 7.23527 1248.66 16.79H1249.66ZM1265.03 1.41999V2.41999C1273.19 2.41999 1279.4 8.36473 1279.4 16.79H1280.4H1281.4C1281.4 7.23527 1274.27 0.419994 1265.03 0.419994V1.41999ZM1280.4 16.79H1279.4C1279.4 25.2153 1273.19 31.16 1265.03 31.16V32.16V33.16C1274.27 33.16 1281.4 26.3447 1281.4 16.79H1280.4ZM1252.85 205H1253.85V57.1H1252.85H1251.85V205H1252.85ZM1252.85 57.1V58.1H1276.63V57.1V56.1H1252.85V57.1ZM1276.63 57.1H1275.63V205H1276.63H1277.63V57.1H1276.63ZM1276.63 205V204H1252.85V205V206H1276.63V205ZM1433.04 183.25H1434.04V182.25H1433.04V183.25ZM1433.04 205V206H1434.04V205H1433.04ZM1393.31 182.09L1394.31 182.07L1394.25 178.99L1392.49 181.519L1393.31 182.09ZM1392.15 117.42V118.42H1393.15V117.42H1392.15ZM1317.62 101.47V102.47H1318.44L1318.6 101.659L1317.62 101.47ZM1293.84 101.47L1292.84 101.351L1292.71 102.47H1293.84V101.47ZM1392.15 137.43H1393.15V136.43H1392.15V137.43ZM1425.5 183.25V184.25H1433.04V183.25V182.25H1425.5V183.25ZM1433.04 183.25H1432.04V205H1433.04H1434.04V183.25H1433.04ZM1433.04 205V204H1419.99V205V206H1433.04V205ZM1419.99 205V204C1410.24 204 1403.95 201.918 1400.05 198.254C1396.16 194.6 1394.45 189.189 1394.31 182.07L1393.31 182.09L1392.31 182.11C1392.46 189.491 1394.23 195.535 1398.68 199.711C1403.11 203.877 1410.01 206 1419.99 206V205ZM1393.31 182.09L1392.49 181.519C1383.37 194.626 1368.87 205.74 1343.72 205.74V206.74V207.74C1369.61 207.74 1384.69 196.234 1394.13 182.661L1393.31 182.09ZM1343.72 206.74V205.74C1327.63 205.74 1314.24 201.718 1304.89 194.459C1295.57 187.221 1290.2 176.713 1290.2 163.53H1289.2H1288.2C1288.2 177.317 1293.85 188.414 1303.66 196.039C1313.46 203.642 1327.32 207.74 1343.72 207.74V206.74ZM1289.2 163.53H1290.2C1290.2 148.994 1295.24 137.78 1304.97 130.17C1314.73 122.53 1329.34 118.42 1348.65 118.42V117.42V116.42C1329.1 116.42 1313.98 120.575 1303.73 128.595C1293.45 136.645 1288.2 148.486 1288.2 163.53H1289.2ZM1348.65 117.42V118.42H1392.15V117.42V116.42H1348.65V117.42ZM1392.15 117.42H1393.15V107.27H1392.15H1391.15V117.42H1392.15ZM1392.15 107.27H1393.15C1393.15 97.445 1389.64 89.4636 1383.08 83.9564C1376.53 78.4683 1367.07 75.53 1355.32 75.53V76.53V77.53C1366.76 77.53 1375.72 80.3917 1381.79 85.4885C1387.84 90.5664 1391.15 97.955 1391.15 107.27H1392.15ZM1355.32 76.53V75.53C1334.14 75.53 1319.66 85.5752 1316.64 101.281L1317.62 101.47L1318.6 101.659C1321.38 87.2048 1334.74 77.53 1355.32 77.53V76.53ZM1317.62 101.47V100.47H1293.84V101.47V102.47H1317.62V101.47ZM1293.84 101.47L1294.83 101.589C1296.54 87.3505 1303.15 76.0772 1313.68 68.3461C1324.23 60.6014 1338.79 56.36 1356.48 56.36V55.36V54.36C1338.49 54.36 1323.48 58.6736 1312.49 66.7338C1301.5 74.8078 1294.62 86.5895 1292.84 101.351L1293.84 101.47ZM1356.48 55.36V56.36C1375.17 56.36 1389.77 61.0341 1399.68 69.846C1409.57 78.6418 1414.93 91.683 1414.93 108.72H1415.93H1416.93C1416.93 91.247 1411.41 77.6082 1401 68.3515C1390.61 59.1109 1375.48 54.36 1356.48 54.36V55.36ZM1415.93 108.72H1414.93V173.39H1415.93H1416.93V108.72H1415.93ZM1415.93 173.39H1414.93C1414.93 177.378 1415.66 180.201 1417.52 181.98C1419.38 183.75 1422.12 184.25 1425.5 184.25V183.25V182.25C1422.21 182.25 1420.16 181.735 1418.9 180.533C1417.65 179.339 1416.93 177.232 1416.93 173.39H1415.93ZM1392.15 144.68H1393.15V137.43H1392.15H1391.15V144.68H1392.15ZM1392.15 137.43V136.43H1346.33V137.43V138.43H1392.15V137.43ZM1346.33 137.43V136.43C1335.65 136.43 1327.14 138.4 1321.27 142.637C1315.35 146.916 1312.27 153.405 1312.27 162.08H1313.27H1314.27C1314.27 153.935 1317.13 148.099 1322.44 144.258C1327.82 140.375 1335.84 138.43 1346.33 138.43V137.43ZM1313.27 162.08H1312.27C1312.27 169.647 1315.53 176.028 1321.36 180.491C1327.16 184.937 1335.44 187.44 1345.46 187.44V186.44V185.44C1335.75 185.44 1327.94 183.013 1322.58 178.904C1317.24 174.812 1314.27 169.013 1314.27 162.08H1313.27ZM1345.46 186.44V187.44C1360.44 187.44 1372.37 183.105 1380.57 175.539C1388.78 167.966 1393.15 157.245 1393.15 144.68H1392.15H1391.15C1391.15 156.765 1386.96 166.924 1379.22 174.069C1371.47 181.22 1360.06 185.44 1345.46 185.44V186.44Z" fill="black" mask="url(#path-1-outside-1_515_24)"/>
</g>
<defs>
<filter id="filter0_d_515_24" x="0.65918" y="0.419922" width="1437.38" height="215.32" filterUnits="userSpaceOnUse" color-interpolation-filters="sRGB">
<feFlood flood-opacity="0" result="BackgroundImageFix"/>
<feColorMatrix in="SourceAlpha" type="matrix" values="0 0 0 0 0 0 0 0 0 0 0 0 0 0 0 0 0 0 127 0" result="hardAlpha"/>
<feOffset dy="4"/>
<feGaussianBlur stdDeviation="2"/>
<feComposite in2="hardAlpha" operator="out"/>
<feColorMatrix type="matrix" values="0 0 0 0 0 0 0 0 0 0 0 0 0 0 0 0 0 0 0.25 0"/>
<feBlend mode="normal" in2="BackgroundImageFix" result="effect1_dropShadow_515_24"/>
<feBlend mode="normal" in="SourceGraphic" in2="effect1_dropShadow_515_24" result="shape"/>
</filter>
</defs>
</svg>
