<svg width="594" height="452" viewBox="0 0 594 452" fill="none" xmlns="http://www.w3.org/2000/svg">
<path d="M-66.7655 176.526L-115.712 225.547L-66.7655 274.582H300.762L349.709 225.547L300.762 176.526H-66.7655Z" fill="#41FF1B" fill-opacity="0.15"/>
<path d="M-119.467 49.0344H353.481L524.78 220.655H594L373.754 0H-139.741L-360 220.655H-290.78L-119.467 49.0344Z" fill="#41FF1B" fill-opacity="0.15"/>
<path d="M353.481 402.074H-119.467L-290.78 230.454H-360L-139.741 451.109H373.754L594 230.454H524.78L353.481 402.074Z" fill="#41FF1B" fill-opacity="0.15"/>
<path d="M-95.142 107.867H329.141L441.726 220.654H510.946L349.415 58.8462H-115.416L-276.934 220.654H-207.714L-95.142 107.867Z" fill="#41FF1B" fill-opacity="0.15"/>
<path d="M329.141 343.241H-95.142L-207.714 230.454H-276.934L-115.416 392.262H349.415L510.946 230.454H441.726L329.141 343.241Z" fill="#41FF1B" fill-opacity="0.15"/>
<path d="M304.815 284.394H-70.817L-124.661 230.454H-193.881L-91.0906 333.429H325.089L427.879 230.454H358.659L304.815 284.394Z" fill="#41FF1B" fill-opacity="0.15"/>
<path d="M-70.817 166.714H304.815L358.659 220.655H427.879L325.089 117.68H-91.0906L-193.881 220.655H-124.661L-70.817 166.714Z" fill="#41FF1B" fill-opacity="0.15"/>
</svg>
