<svg width="38" height="38" viewBox="0 0 38 38" fill="none" xmlns="http://www.w3.org/2000/svg">
<path d="M19.0127 0.0253906C29.4992 0.0254127 38 8.52785 38 19.0166C38 29.5054 29.4993 38.0088 19.0127 38.0088C8.5261 38.0088 0.0253906 29.5054 0.0253906 19.0166C0.0254389 8.52784 8.52613 0.0253906 19.0127 0.0253906ZM19.0137 25.4131C16.6378 25.4131 14.3587 26.3578 12.6787 28.0381C11.1829 29.5343 10.2717 31.5051 10.0898 33.5967C12.687 35.1902 15.7425 36.1094 19.0127 36.1094C22.2831 36.1094 25.3383 35.1894 27.9355 33.5957C27.7535 31.5045 26.8433 29.5341 25.3477 28.0381C23.6677 26.3579 21.3894 25.4132 19.0137 25.4131ZM19.0127 1.92383C9.57479 1.92383 1.92388 9.57672 1.92383 19.0166C1.92383 24.5496 4.55278 29.4679 8.62891 32.5918C8.99491 30.4575 10.0101 28.4716 11.5615 26.9199C12.6137 25.8675 13.8661 25.0626 15.2285 24.5381C11.2785 23.0168 8.47461 19.187 8.47461 14.7002C8.47469 8.87872 13.1932 4.15918 19.0137 4.15918C24.8341 4.15923 29.5527 8.87875 29.5527 14.7002C29.5527 19.1876 26.7477 23.0172 22.7969 24.5381C24.1598 25.0626 25.4133 25.8672 26.4658 26.9199C28.0168 28.4713 29.0303 30.457 29.3965 32.5908C33.4723 29.4669 36.1016 24.5494 36.1016 19.0166C36.1015 9.57673 28.4506 1.92385 19.0127 1.92383ZM19.0137 5.74023C14.0663 5.74023 10.0557 9.75195 10.0557 14.7002C10.0557 19.6485 14.0662 23.6602 19.0137 23.6602C23.961 23.6601 27.9717 19.6485 27.9717 14.7002C27.9716 9.75198 23.961 5.74029 19.0137 5.74023Z" fill="white"/>
</svg>
